<svg width="116" height="49" viewBox="0 0 116 49" fill="none" xmlns="http://www.w3.org/2000/svg">
<path d="M46.66 28.36H51.14V31H43.24V16.96H46.66V28.36ZM64.1564 19.84V31H60.7364V29.48C60.3898 29.9733 59.9164 30.3733 59.3164 30.68C58.7298 30.9733 58.0764 31.12 57.3564 31.12C56.5031 31.12 55.7498 30.9333 55.0964 30.56C54.4431 30.1733 53.9364 29.62 53.5764 28.9C53.2164 28.18 53.0364 27.3333 53.0364 26.36V19.84H56.4364V25.9C56.4364 26.6467 56.6298 27.2267 57.0164 27.64C57.4031 28.0533 57.9231 28.26 58.5764 28.26C59.2431 28.26 59.7698 28.0533 60.1564 27.64C60.5431 27.2267 60.7364 26.6467 60.7364 25.9V19.84H64.1564ZM73.5782 31L71.4382 27.9L69.6382 31H65.9382L69.6182 25.3L65.8382 19.84H69.6782L71.8182 22.92L73.6182 19.84H77.3182L73.5782 25.46L77.4182 31H73.5782ZM84.1812 31.16C83.0879 31.16 82.1012 30.9267 81.2212 30.46C80.3545 29.9933 79.6679 29.3267 79.1612 28.46C78.6679 27.5933 78.4212 26.58 78.4212 25.42C78.4212 24.2733 78.6745 23.2667 79.1812 22.4C79.6879 21.52 80.3812 20.8467 81.2612 20.38C82.1412 19.9133 83.1279 19.68 84.2212 19.68C85.3145 19.68 86.3012 19.9133 87.1812 20.38C88.0612 20.8467 88.7545 21.52 89.2612 22.4C89.7679 23.2667 90.0212 24.2733 90.0212 25.42C90.0212 26.5667 89.7612 27.58 89.2412 28.46C88.7345 29.3267 88.0345 29.9933 87.1412 30.46C86.2612 30.9267 85.2745 31.16 84.1812 31.16ZM84.1812 28.2C84.8345 28.2 85.3879 27.96 85.8412 27.48C86.3079 27 86.5412 26.3133 86.5412 25.42C86.5412 24.5267 86.3145 23.84 85.8612 23.36C85.4212 22.88 84.8745 22.64 84.2212 22.64C83.5545 22.64 83.0012 22.88 82.5612 23.36C82.1212 23.8267 81.9012 24.5133 81.9012 25.42C81.9012 26.3133 82.1145 27 82.5412 27.48C82.9812 27.96 83.5279 28.2 84.1812 28.2ZM95.6208 21.7C96.0208 21.0867 96.5208 20.6067 97.1208 20.26C97.7208 19.9 98.3874 19.72 99.1208 19.72V23.34H98.1808C97.3274 23.34 96.6874 23.5267 96.2608 23.9C95.8341 24.26 95.6208 24.9 95.6208 25.82V31H92.2008V19.84H95.6208V21.7ZM100.441 25.4C100.441 24.2533 100.654 23.2467 101.081 22.38C101.521 21.5133 102.114 20.8467 102.861 20.38C103.607 19.9133 104.441 19.68 105.361 19.68C106.147 19.68 106.834 19.84 107.421 20.16C108.021 20.48 108.481 20.9 108.801 21.42V19.84H112.221V31H108.801V29.42C108.467 29.94 108.001 30.36 107.401 30.68C106.814 31 106.127 31.16 105.341 31.16C104.434 31.16 103.607 30.9267 102.861 30.46C102.114 29.98 101.521 29.3067 101.081 28.44C100.654 27.56 100.441 26.5467 100.441 25.4ZM108.801 25.42C108.801 24.5667 108.561 23.8933 108.081 23.4C107.614 22.9067 107.041 22.66 106.361 22.66C105.681 22.66 105.101 22.9067 104.621 23.4C104.154 23.88 103.921 24.5467 103.921 25.4C103.921 26.2533 104.154 26.9333 104.621 27.44C105.101 27.9333 105.681 28.18 106.361 28.18C107.041 28.18 107.614 27.9333 108.081 27.44C108.561 26.9467 108.801 26.2733 108.801 25.42Z" fill="#5DA9C8"/>
<path d="M26.7753 36.4224H12.5107V29.0563L14.8491 26.3086L16.603 23.3271L17.4214 20.8717L17.6553 19.4102V31.2778H27.243C28.3328 31.439 28.9261 31.5797 29.9322 31.9794L31.3352 32.7978C32.2625 33.487 32.635 33.8531 33.206 34.4932C33.7436 35.2508 33.9916 35.6428 34.3752 36.3055C34.7197 37.1385 34.8764 37.5758 35.0768 38.2932L35.1937 39.1117V40.8655C35.1049 41.7234 35.0307 42.1597 34.8429 42.8532C34.5561 43.6412 34.3773 44.0232 34.0245 44.607C33.5144 45.4517 33.152 45.9122 32.3876 46.7117C31.3272 47.5589 30.6752 47.9186 29.4645 48.4655C28.7618 48.697 28.3821 48.7878 27.7106 48.9332H9.82144L8.65221 48.5824C8.02957 48.3922 7.73069 48.2647 7.3076 47.9978C6.68966 47.5089 6.37424 47.2213 6.07991 46.5947C5.68148 45.8683 5.53171 45.4606 5.37838 44.724C5.12483 43.5981 5.16823 42.6356 5.14453 41.0994C5.66787 42.5455 6.32162 43.1073 7.95067 43.7886H27.243C28.1712 43.4114 28.655 43.1412 29.3476 42.3855C29.8016 41.6743 29.9554 41.188 30.0491 40.164C30.0236 39.4655 29.8761 38.9928 29.4645 38.0594C28.6161 37.0486 28.0113 36.7193 26.7753 36.4224Z" fill="url(#paint0_linear_2932_1241)"/>
<path d="M0.876924 4.91076C0.278143 5.9216 0.0777283 6.5412 0 7.77537V39.2861L0.233846 37.4738L0.935385 34.7261C1.44688 33.5236 1.80708 32.8126 2.86461 31.3353C3.59127 30.4011 4.03953 29.8596 5.14461 28.763V18.4446V8.12614V5.6123C5.2021 5.24576 5.25369 5.03218 5.37845 4.67692C5.54761 4.19525 5.66132 3.96206 5.96307 3.50769C6.21006 3.13061 6.36772 2.92756 6.66461 2.5723C6.96794 2.23316 7.16476 2.05145 7.59998 1.75384C8.00592 1.51926 8.2272 1.37873 8.76921 1.16923C9.14883 0.986406 9.38648 0.917382 9.82152 0.81846C10.2894 0.803138 10.5768 0.805698 11.1077 0.81846C11.3896 0.843145 11.5606 0.864156 11.9261 0.935383C12.0481 0.973218 12.1868 1.01594 12.6861 1.16923C13.311 1.31875 13.5455 1.44107 14.0307 1.63692C13.2898 1.1154 12.8958 0.805757 11.9261 0.467692C11.3368 0.21507 10.8986 0.126703 10.0554 0H7.13229C6.48764 0.130789 6.12813 0.221362 5.49538 0.467692C4.98089 0.742422 4.71486 0.895962 4.26769 1.16923C3.17177 1.88873 2.68191 2.37193 1.87077 3.27384C1.43159 3.97236 1.20701 4.33863 0.876924 4.91076Z" fill="url(#paint1_linear_2932_1241)"/>
<path d="M5.14461 39.2965V41.1673C5.1683 42.7036 5.12491 43.6661 5.37845 44.7919C5.53178 45.5286 5.68155 45.9363 6.07999 46.6627C6.37432 47.2893 6.68974 47.5768 7.30768 48.0658C7.73077 48.3327 8.02965 48.4601 8.65229 48.6504L9.82152 49.0012H7.83384C6.53891 48.9199 5.84477 48.7168 4.67692 48.0658C3.56733 47.49 3.00452 47.1063 2.22153 46.195C1.7726 45.6258 1.53783 45.296 1.16923 44.675C0.706146 43.8559 0.491219 43.3747 0.233846 42.4535C0.10954 42.0666 0.0505698 41.7829 0 40.9335V39.2965L0.233846 37.4842L0.935383 34.7366C1.44688 33.5341 1.80708 32.8231 2.86461 31.3458C3.59127 30.4116 4.03953 29.87 5.14461 28.7735L5.84614 28.0719L7.30768 26.7858L8.88614 25.2658L10.4061 23.6289C10.9651 22.9303 11.2613 22.5151 11.6923 21.6412C12.1983 20.7313 12.3715 20.1379 12.5108 18.952V8.37044C12.3315 7.5698 12.1517 7.14865 11.6923 6.44121C11.1812 5.89117 10.7671 5.62127 9.76306 5.21352C8.89268 5.03297 8.366 5.04976 7.30768 5.44737C6.73653 5.69758 6.48849 5.92834 6.07999 6.38275C5.62247 7.02864 5.14461 8.13659 5.14461 8.13659V5.62275C5.2021 5.25621 5.25369 5.04263 5.37845 4.68737C5.54761 4.2057 5.66132 3.97252 5.96307 3.51814C6.21006 3.14106 6.36772 2.93801 6.6646 2.58276C6.96794 2.24361 7.16477 2.06191 7.59999 1.7643C8.00593 1.52971 8.22721 1.38919 8.76922 1.17968C9.14884 0.996859 9.38649 0.927835 9.82152 0.828913C10.2894 0.813591 10.5768 0.81615 11.1077 0.828913C11.3896 0.853598 11.5606 0.874608 11.9261 0.945836C12.0481 0.983671 12.1868 1.02639 12.6861 1.17968C13.311 1.32921 13.5455 1.45152 14.0307 1.64737L15.3169 2.8166L16.4861 4.45352L17.3046 6.32429L17.6554 8.13659V19.4781L17.4215 20.9397L16.6031 23.395L14.8492 26.3766L12.5108 29.1243L9.99691 31.3458L7.95076 33.3335C7.34492 33.9773 7.08132 34.3349 6.6646 34.9704C6.14278 35.763 5.92492 36.2272 5.6123 37.075C5.35042 37.9547 5.24518 38.4425 5.14461 39.2965Z" fill="url(#paint2_linear_2932_1241)"/>
<defs>
<linearGradient id="paint0_linear_2932_1241" x1="20.1691" y1="19.4102" x2="20.1691" y2="48.9332" gradientUnits="userSpaceOnUse">
<stop stop-color="#F5FDFE"/>
<stop offset="1" stop-color="#53A4C4"/>
</linearGradient>
<linearGradient id="paint1_linear_2932_1241" x1="7.01537" y1="0" x2="7.01537" y2="39.2861" gradientUnits="userSpaceOnUse">
<stop stop-color="#F5FDFE"/>
<stop offset="1" stop-color="#53A4C4"/>
</linearGradient>
<linearGradient id="paint2_linear_2932_1241" x1="8.82768" y1="0.818359" x2="8.82768" y2="49.0012" gradientUnits="userSpaceOnUse">
<stop stop-color="#53A4C4"/>
<stop offset="1" stop-color="#F5FDFE"/>
</linearGradient>
</defs>
</svg>