<svg
    width="52"
    height="52"
    viewBox="0 0 52 52"
    fill="none"
    xmlns="http://www.w3.org/2000/svg"
  >
    <path
      d="M47.125 43.875H43.875V21.125C43.875 20.2276 43.1475 19.5 42.25 19.5H33.3125H25.1875H17.875V7.3125C17.875 5.36027 17.1146 3.52402 15.7328 2.14104C14.3509 0.760398 12.5146 0 10.5625 0C6.53037 0 3.25 3.28037 3.25 7.3125C3.25 8.20991 3.97749 8.9375 4.875 8.9375C5.77251 8.9375 6.5 8.20991 6.5 7.3125C6.5 5.07244 8.32244 3.25 10.5625 3.25C11.6472 3.25 12.6676 3.6727 13.4347 4.43909C14.2023 5.20731 14.625 6.22781 14.625 7.3125V21.125V39.2057C11.8246 39.9291 9.75 42.4768 9.75 45.5C9.75 49.0841 12.6659 52 16.25 52C19.2732 52 21.8209 49.9254 22.5443 47.125H42.25H47.125C48.0225 47.125 48.75 46.3974 48.75 45.5C48.75 44.6026 48.0225 43.875 47.125 43.875ZM31.6875 22.75V26H26.8125V22.75H31.6875ZM16.25 48.75C14.4579 48.75 13 47.2921 13 45.5C13 43.7079 14.4579 42.25 16.25 42.25C18.0421 42.25 19.5 43.7079 19.5 45.5C19.5 47.2921 18.0421 48.75 16.25 48.75ZM22.5443 43.875C21.9552 41.5942 20.1558 39.7948 17.875 39.2057V22.75H23.5625V27.625C23.5625 28.5224 24.29 29.25 25.1875 29.25H33.3125C34.21 29.25 34.9375 28.5224 34.9375 27.625V22.75H40.625V43.875H22.5443Z"
      fill="#fff"
    ></path>
  </svg>