<svg
  xmlns="http://www.w3.org/2000/svg"
  viewBox="0 0 80 80"
  fill="none"
  stroke="#fff"
>
  <path d="M31.21 12.12s3.83.26 4.08-4.06h.61s.1 4.21 4.1 4.06v.59a4 4 0 0 0-4.1 4.06h-.57a3.93 3.93 0 0 0-4.12-4ZM0 21.17s6.13.45 6.79-6.84h.75s0 6.64 6.75 6.84V22s-6.21-.54-6.75 6.63h-.83S7 22 0 22ZM19.44 16.81a7.88 7.88 0 0 1 8-8v-.72s-7.66.32-8-8.09h-.78s.25 7.94-8 8v.88s7.72-.32 8.1 7.9Z"/>

  <path d="m3.25 39.88 18.5-18.4H59.5l18 18.4-37.12 37.25L3.25 39.88z" stroke-width="4" stroke-linejoin="round"/>

  <path d="M40.38 21.48 22.13 40l18.25 37.13 18.87-37.25-18.87-18.4zM3.25 39.88H77.5" stroke-width="2.3" stroke-linejoin="round"/>

  <path d="M61.75 43.63h6.13L55 56.88l6.75-13.25zM67.88 36.13l-4.72-4.97v4.97h4.72zM50.31 25.56h5.28v5.32l-5.28-5.32zM40.63 26.56l9.5 9.57h-6.35l-3.15-9.57zM40.69 68.5l12.26-24.87h-9.2L40.69 68.5z"/>

  <path d="m59.5 21.48-.25 18.39M22.22 21.68l-.19 18.39" stroke-width="2.3" stroke-miterlimit="10"/>
</svg>
